<svg width="115" height="80" viewBox="0 0 115 80" fill="none" xmlns="http://www.w3.org/2000/svg">
<rect x="0.5" y="0.5" width="114" height="79" rx="9.5" fill="url(#paint0_linear)"/>
<rect x="0.5" y="0.5" width="114" height="79" rx="9.5" stroke="#E8E8E8"/>
<rect x="0.5" y="0.5" width="114" height="79" rx="9.5" stroke="#EDEDED"/>
<path d="M11.7401 51.9222H12.4289L11.7888 54.5954C11.6939 54.992 11.7118 55.2907 11.843 55.4898C11.9738 55.6892 12.2173 55.789 12.5731 55.789C12.9267 55.789 13.2166 55.6892 13.4431 55.4898C13.6699 55.2907 13.8307 54.992 13.9257 54.5954L14.5655 51.9222H15.2632L14.6075 54.6616C14.465 55.2568 14.2112 55.7024 13.8477 55.9978C13.4839 56.2937 13.007 56.4414 12.4169 56.4414C11.8264 56.4414 11.4213 56.294 11.2008 55.9993C10.98 55.7049 10.9414 55.2588 11.0844 54.6616L11.7401 51.9222Z" fill="#696A6A"/>
<path d="M15.1707 56.3253L16.2662 51.7489L18.3479 54.44C18.4036 54.5159 18.4598 54.5972 18.5152 54.6834C18.5707 54.7697 18.6274 54.8667 18.6856 54.9751L19.4163 51.9232H20.0611L18.9663 56.4961L16.8408 53.757C16.7839 53.6831 16.7309 53.6051 16.6814 53.5228C16.6315 53.4404 16.5865 53.3542 16.5452 53.2642L15.8124 56.3253H15.1707Z" fill="#696A6A"/>
<path d="M20.0039 56.3242L21.0577 51.9221H21.7549L20.7014 56.3242H20.0039Z" fill="#696A6A"/>
<path d="M21.7041 56.3242L22.7579 51.9221H25.1524L25.0069 52.5293H23.3099L23.0471 53.6269H24.7441L24.5939 54.2552H22.8966L22.4016 56.3242H21.7041Z" fill="#696A6A"/>
<path d="M24.8667 56.3242L25.9205 51.9221H26.6177L25.5642 56.3242H24.8667Z" fill="#696A6A"/>
<path d="M26.5668 56.3242L27.6205 51.9221H30.015L29.8696 52.5293H28.1725L27.9082 53.6328H29.6053L29.4551 54.2614H27.758L27.4174 55.6837H29.1144L28.9613 56.3242H26.5668Z" fill="#696A6A"/>
<path d="M30.6138 55.6775H31.2002C31.5224 55.6775 31.7696 55.6554 31.9414 55.6113C32.1132 55.5673 32.2708 55.493 32.4153 55.3888C32.6115 55.2468 32.7753 55.0698 32.9071 54.8582C33.0387 54.6468 33.1384 54.4004 33.2055 54.1197C33.2724 53.839 33.2908 53.5933 33.2605 53.3822C33.2299 53.1704 33.1508 52.9936 33.0227 52.8511C32.9265 52.7472 32.7995 52.6726 32.6408 52.6283C32.4819 52.5845 32.2233 52.5624 31.8638 52.5624H31.6117H31.3595L30.6138 55.6775ZM29.7617 56.3242L30.8155 51.9219H31.7561C32.3678 51.9219 32.7905 51.9532 33.0247 52.0164C33.2585 52.0798 33.4517 52.1857 33.6036 52.3339C33.8052 52.5283 33.9335 52.778 33.9887 53.0823C34.0437 53.3872 34.0243 53.735 33.9308 54.1259C33.8373 54.5168 33.6904 54.8632 33.49 55.1648C33.29 55.4666 33.0421 55.7155 32.7472 55.912C32.5242 56.0604 32.285 56.1661 32.0309 56.2295C31.776 56.2924 31.3961 56.3242 30.8898 56.3242H30.7021H29.7617Z" fill="#696A6A"/>
<path d="M37.3269 53.7624H37.5059C37.8925 53.7624 38.1608 53.7189 38.3105 53.6328C38.4605 53.5468 38.5612 53.3944 38.6134 53.1758C38.6696 52.9414 38.6405 52.7758 38.5256 52.6798C38.4107 52.5835 38.169 52.5351 37.7998 52.5351H37.6208L37.3269 53.7624ZM37.1426 54.3482L36.6697 56.3242H36.0162L37.0703 51.9221H38.1253C38.4378 51.9221 38.6638 51.9395 38.8031 51.9746C38.9418 52.0094 39.0565 52.0674 39.147 52.1477C39.2571 52.2499 39.3295 52.3876 39.3643 52.5609C39.3989 52.7345 39.3914 52.9254 39.3417 53.1336C39.2914 53.3422 39.2074 53.5346 39.089 53.7112C38.9707 53.8875 38.8319 54.026 38.6733 54.1259C38.5445 54.2062 38.4025 54.2634 38.2469 54.2972C38.091 54.3315 37.857 54.3482 37.5444 54.3482H37.4069H37.1426Z" fill="#696A6A"/>
<path d="M40.2027 54.5954H41.3985L41.1988 53.5908C41.1893 53.5269 41.1804 53.4533 41.1727 53.37C41.1655 53.2867 41.1605 53.194 41.1573 53.0918C41.111 53.188 41.0645 53.2778 41.018 53.3611C40.9718 53.4441 40.9268 53.5207 40.8825 53.5908L40.2027 54.5954ZM41.7175 56.3242L41.5019 55.1906H39.8019L39.0323 56.3242H38.3L41.4731 51.7478L42.453 56.3242H41.7175Z" fill="#696A6A"/>
<path d="M43.4527 56.3242L43.9345 54.3094L43.0613 51.9221H43.794L44.3361 53.4165C44.3485 53.4548 44.3635 53.5048 44.3806 53.567C44.398 53.6291 44.4149 53.696 44.4308 53.7684C44.4746 53.6982 44.5196 53.6316 44.5646 53.5697C44.6096 53.5075 44.6551 53.4506 44.7011 53.3984L45.9774 51.9221H46.6751L44.6263 54.3094L44.1441 56.3242H43.4527Z" fill="#696A6A"/>
<path d="M50.1076 54.1483C50.1078 54.1142 50.1178 54.0202 50.1372 53.8658C50.1521 53.7375 50.1638 53.6311 50.1722 53.5468C50.1307 53.6473 50.0817 53.7477 50.0255 53.8477C49.9691 53.9479 49.9045 54.0501 49.8306 54.1545L48.1465 56.5L47.597 54.1065C47.5736 54.008 47.5557 53.9128 47.5438 53.8208C47.5318 53.7286 47.5236 53.6373 47.5197 53.5468C47.4958 53.6393 47.4655 53.7358 47.4284 53.8372C47.3914 53.9384 47.3471 54.0443 47.2951 54.1545L46.316 56.3225H45.6744L47.7867 51.7337L48.3879 54.5123C48.3966 54.5563 48.4093 54.6297 48.4247 54.7319C48.4402 54.8341 48.4583 54.9604 48.4794 55.1106C48.5506 54.9842 48.653 54.8241 48.7878 54.6297C48.8236 54.5774 48.8509 54.5374 48.8693 54.5093L50.7707 51.7337L50.7098 56.3225H50.0618L50.1076 54.1483Z" fill="#696A6A"/>
<path d="M51.2666 56.3242L52.3206 51.9221H54.7151L54.5697 52.5293H52.8724L52.6083 53.6328H54.3053L54.1552 54.2614H52.4579L52.1175 55.6837H53.8145L53.6608 56.3242H51.2666Z" fill="#696A6A"/>
<path d="M54.4615 56.3253L55.5571 51.7489L57.6388 54.44C57.6945 54.5159 57.7507 54.5972 57.8061 54.6834C57.8616 54.7697 57.9183 54.8667 57.9764 54.9751L58.7072 51.9232H59.3522L58.2572 56.4961L56.1317 53.757C56.0748 53.6831 56.0218 53.6051 55.9723 53.5228C55.9224 53.4404 55.8774 53.3542 55.8361 53.2642L55.1033 56.3253H54.4615Z" fill="#696A6A"/>
<path d="M61.5776 52.5293L60.6693 56.3242H59.9719L60.8799 52.5293H59.7399L59.8853 51.9221H62.8572L62.712 52.5293H61.5776Z" fill="#696A6A"/>
<path d="M62.3014 55.4431L62.9216 55.1788C62.9278 55.375 62.9884 55.5249 63.1043 55.6281C63.2202 55.7315 63.3875 55.783 63.6068 55.783C63.8137 55.783 63.9927 55.7238 64.1429 55.6054C64.2933 55.4873 64.3926 55.329 64.44 55.1305C64.502 54.8717 64.3476 54.6412 63.9783 54.439C63.9266 54.409 63.8868 54.3868 63.8595 54.3726C63.443 54.1362 63.1789 53.9221 63.0675 53.7306C62.9564 53.5392 62.9335 53.3052 62.9996 53.0287C63.0854 52.6699 63.2739 52.3792 63.5646 52.1567C63.8552 51.9341 64.1929 51.8228 64.5781 51.8228C64.8946 51.8228 65.1445 51.8854 65.3272 52.0107C65.5102 52.1363 65.6147 52.3161 65.6405 52.5505L65.0266 52.8392C64.9734 52.701 64.9033 52.5998 64.8163 52.5354C64.729 52.4712 64.6186 52.4392 64.4861 52.4392C64.2986 52.4392 64.1374 52.4896 64.0029 52.5893C63.8692 52.6898 63.7814 52.8241 63.7408 52.9926C63.6777 53.2572 63.8609 53.5036 64.2909 53.7321C64.3239 53.75 64.3498 53.7645 64.3684 53.7744C64.7446 53.9746 64.9893 54.1707 65.1015 54.3622C65.2138 54.5539 65.236 54.7929 65.1671 55.0793C65.0674 55.4965 64.8603 55.8277 64.5455 56.0732C64.2307 56.3186 63.8552 56.4414 63.4198 56.4414C63.0541 56.4414 62.7753 56.3554 62.5834 56.1828C62.3909 56.0105 62.2969 55.7641 62.3014 55.4431Z" fill="#696A6A"/>
<path d="M67.4547 56.3242L68.5085 51.9221H69.2059L68.1522 56.3242H67.4547Z" fill="#696A6A"/>
<path d="M69.1547 56.3253L70.2502 51.7489L72.3319 54.44C72.3876 54.5159 72.4438 54.5972 72.4992 54.6834C72.5547 54.7697 72.6114 54.8667 72.6696 54.9751L73.4003 51.9232H74.0451L72.9503 56.4961L70.8248 53.757C70.7679 53.6831 70.7147 53.6051 70.6652 53.5228C70.6155 53.4404 70.5702 53.3542 70.5289 53.2642L69.7964 56.3253H69.1547Z" fill="#696A6A"/>
<path d="M76.2707 52.5293L75.3622 56.3242H74.665L75.573 52.5293H74.433L74.5784 51.9221H77.5503L77.4051 52.5293H76.2707Z" fill="#696A6A"/>
<path d="M77.0302 56.3242L78.0839 51.9221H80.4784L80.3332 52.5293H78.6362L78.3719 53.6328H80.0689L79.9185 54.2614H78.2214L77.881 55.6837H79.5781L79.4246 56.3242H77.0302Z" fill="#696A6A"/>
<path d="M81.5271 53.7982H81.6535C82.0225 53.7982 82.2783 53.7544 82.4205 53.6662C82.5628 53.5779 82.6612 53.4217 82.7144 53.197C82.7726 52.9545 82.7488 52.7835 82.6421 52.6845C82.5364 52.5848 82.3074 52.5353 81.9558 52.5353H81.8295L81.5271 53.7982ZM81.3501 54.3544L80.8784 56.3242H80.225L81.279 51.9221H82.252C82.5372 51.9221 82.754 51.941 82.9019 51.9793C83.0501 52.0174 83.1695 52.0803 83.2597 52.1688C83.3672 52.2747 83.4368 52.4125 83.4691 52.5808C83.5007 52.7489 83.4925 52.9334 83.4447 53.1336C83.3604 53.4864 83.2112 53.7626 82.9974 53.9623C82.7836 54.1615 82.5096 54.2816 82.1756 54.3214L83.1737 56.3242H82.385L81.4292 54.3544H81.3501Z" fill="#696A6A"/>
<path d="M83.5869 56.3242L84.6407 51.9221H87.0352L86.89 52.5293H85.1927L84.9299 53.6269H86.6271L86.4767 54.2552H84.7797L84.2844 56.3242H83.5869Z" fill="#696A6A"/>
<path d="M87.8437 54.5954H89.0397L88.84 53.5908C88.8303 53.5269 88.8216 53.4533 88.8139 53.37C88.8067 53.2867 88.8017 53.194 88.7985 53.0918C88.752 53.188 88.7055 53.2778 88.6593 53.3611C88.613 53.4441 88.5678 53.5207 88.5235 53.5908L87.8437 54.5954ZM89.3587 56.3242L89.1431 55.1906H87.4431L86.6736 56.3242H85.941L89.114 51.7478L90.0942 56.3242H89.3587Z" fill="#696A6A"/>
<path d="M94.6344 52.9926C94.4785 52.8203 94.301 52.691 94.1015 52.6048C93.9026 52.519 93.6818 52.4755 93.4394 52.4755C92.9707 52.4755 92.552 52.6299 92.1842 52.9384C91.816 53.2473 91.5733 53.6471 91.4557 54.1384C91.342 54.6136 91.3915 55.0052 91.6039 55.3138C91.8162 55.6226 92.1405 55.7773 92.5758 55.7773C92.8302 55.7773 93.0828 55.731 93.3345 55.6388C93.5861 55.5465 93.84 55.4073 94.0953 55.2205L93.9016 56.0296C93.6811 56.1679 93.4521 56.2713 93.2151 56.3392C92.9779 56.4073 92.7305 56.4414 92.4726 56.4414C92.1444 56.4414 91.854 56.3865 91.6021 56.2761C91.35 56.1659 91.1439 56.0038 90.9845 55.789C90.8258 55.5786 90.7241 55.3307 90.6806 55.0447C90.6364 54.7593 90.653 54.455 90.7301 54.132C90.8074 53.8095 90.9365 53.5064 91.1168 53.2226C91.2968 52.9389 91.5193 52.6898 91.7834 52.4755C92.0485 52.2589 92.3319 52.0953 92.6338 51.9836C92.9359 51.8727 93.2474 51.8168 93.5679 51.8168C93.8201 51.8168 94.0513 51.8546 94.2619 51.9299C94.4725 52.0048 94.667 52.1184 94.8458 52.2713L94.6344 52.9926Z" fill="#696A6A"/>
<path d="M94.7019 56.3242L95.7557 51.9221H98.1502L98.0047 52.5293H96.3079L96.0436 53.6328H97.7406L97.5902 54.2614H95.8932L95.5528 55.6837H97.2498L97.0964 56.3242H94.7019Z" fill="#696A6A"/>
<path d="M81.98 48.082H77.1853L83.8536 23.9992H88.6485L81.98 48.082Z" fill="#66686C"/>
<path d="M79.4908 24.7601C79.1584 24.3019 78.6457 24.0706 77.9492 24.0706H51.5835L50.2776 28.7875H55.075V28.7848H74.263L72.8671 33.8254H53.6786L53.6803 33.8149H48.8849L44.9048 48.1836H49.7027L52.3737 38.5395H73.943C74.6166 38.5395 75.2506 38.3098 75.8469 37.8502C76.4419 37.3902 76.8335 36.8231 77.0213 36.1458L79.692 26.4997C79.8869 25.7997 79.8195 25.2189 79.4908 24.7601Z" fill="#66686C"/>
<path d="M42.1108 46.5821C41.846 47.5356 40.9777 48.1953 39.9878 48.1953H15.2495C14.5754 48.1953 14.0744 47.9656 13.7449 47.5066C13.4157 47.0471 13.3451 46.4786 13.5333 45.8016L19.5695 24.0729H24.3687L18.9772 43.4799H38.1744L43.5659 24.0729H48.3641L42.1108 46.5821Z" fill="#66686C"/>
<path d="M96.9295 24.0454L103 36.1181L90.2389 48.1875L96.9295 24.0454Z" fill="#27803B"/>
<path d="M92.6741 24.0454L98.7401 36.1181L85.9738 48.1875L92.6741 24.0454Z" fill="#E9661C"/>
<defs>
<linearGradient id="paint0_linear" x1="57" y1="5" x2="57" y2="80" gradientUnits="userSpaceOnUse">
<stop stop-color="#F5F5F5"/>
<stop offset="1" stop-color="white"/>
</linearGradient>
</defs>
</svg>
